#N canvas -11 -11 1920 1016 10;
#X obj 123 201 wave1;
#X obj 117 483 wave2;
#X obj 125 118 tgl 15 0 empty empty empty 17 7 0 10 -262144 -1 -1 1
1;
#X text 147 117 start;
#X msg 125 145 \; pd dsp \$1;
#X obj 447 484 wave3;
#X obj 844 164 harmonic_control_wave3;
#X obj 1240 241 play_drone;
#X text 1258 221 drone player;
#X obj 1005 93 performer1;
#X text 280 133 q: / w:/ e:/r:/t:/y:/u:/i:/o:/p:/ a:/s:/d:/f:/g:/h:/j:/k:/l:/z:/x:/c:/v:/b:/n:/m:/
;
#X connect 2 0 4 0;
#X coords 0 0 1 1 85 60 0;
