#N canvas 954 165 806 626 10;
#X obj 39 138 osc~ 0;
#X obj 39 113 *~ \$1;
#X obj 39 207 throw~ sum_sines2;
#X obj 106 135 hsl 100 15 0 1 0 0 empty empty empty -2 -8 0 10 -262144
-1 -1 1980 1;
#X obj 39 236 cnv 15 100 60 empty empty empty 20 12 0 14 -233017 -66577
0;
#X text 101 115 amplitude;
#X obj 39 62 receive freq2;
#X obj 39 88 sig~ 100;
#X obj 302 124 f \$2;
#X obj 302 74 r set-amp;
#X msg 102 157 \$1 10;
#X obj 40 180 *~ 0.1;
#X obj 102 186 line;
#X connect 0 0 11 0;
#X connect 1 0 0 0;
#X connect 3 0 10 0;
#X connect 6 0 7 0;
#X connect 7 0 1 0;
#X connect 8 0 3 0;
#X connect 9 0 8 0;
#X connect 10 0 12 0;
#X connect 11 0 2 0;
#X connect 12 0 11 1;
#X coords 0 -1 1 1 110 50 1 100 100;
