#N canvas 185 155 965 616 10;
#X obj 139 124 bng 15 250 50 0 empty empty empty 17 7 0 10 -262144
-1 -1;
#X obj 455 220 hsl 128 15 0 1 0 0 empty empty volume_samples -2 -8
0 10 -262144 -1 -1 800 1;
#X obj 170 124 bng 15 250 50 0 empty empty empty 17 7 0 10 -262144
-1 -1;
#X obj 202 124 bng 15 250 50 0 empty empty empty 17 7 0 10 -262144
-1 -1;
#X obj 234 124 bng 15 250 50 0 empty empty empty 17 7 0 10 -262144
-1 -1;
#X obj 267 124 bng 15 250 50 0 empty empty empty 17 7 0 10 -262144
-1 -1;
#X obj 299 124 bng 15 250 50 0 empty empty empty 17 7 0 10 -262144
-1 -1;
#X obj 332 124 bng 15 250 50 0 empty empty empty 17 7 0 10 -262144
-1 -1;
#X obj 365 124 bng 15 250 50 0 empty empty empty 17 7 0 10 -262144
-1 -1;
#X obj 396 124 bng 15 250 50 0 empty empty empty 17 7 0 10 -262144
-1 -1;
#X obj 427 124 bng 15 250 50 0 empty empty empty 17 7 0 10 -262144
-1 -1;
#X obj 153 158 bng 15 250 50 0 empty empty empty 17 7 0 10 -262144
-1 -1;
#X obj 184 158 bng 15 250 50 0 empty empty empty 17 7 0 10 -262144
-1 -1;
#X obj 606 217 rmstodb;
#X floatatom 552 200 5 0 0 0 - - -;
#X obj 606 169 s volume;
#X obj 674 181 loadbang;
#X obj 188 373 cnv 15 100 60 empty empty empty 20 12 0 14 -233017 -66577
0;
#X msg 674 219 0.2;
#X obj 137 18 key;
#X floatatom 172 18 5 0 0 0 - - -;
#X text 212 19 a:97/s:115/d:100/f:102/g:103/h:104/j:106/k:107/l:108/
\; :59/ ':39/q:113;
#X msg 169 288 2;
#X obj 41 356 s sample;
#X msg 138 288 1;
#X msg 203 288 3;
#X msg 240 288 4;
#X msg 274 288 5;
#X msg 311 288 6;
#X msg 346 288 7;
#X msg 381 287 8;
#X msg 418 287 9;
#X msg 455 287 10;
#X msg 247 319 11;
#X msg 282 319 12;
#X obj 137 52 select 113 119 101 114 116 121 117 105 111 112 97 115
100 102 103 104 106 107 108 122 120 99 118 98 110 109;
#X obj 217 158 bng 15 250 50 0 empty empty empty 17 7 0 10 -262144
-1 -1;
#X obj 249 158 bng 15 250 50 0 empty empty empty 17 7 0 10 -262144
-1 -1;
#X obj 282 158 bng 15 250 50 0 empty empty empty 17 7 0 10 -262144
-1 -1;
#X obj 314 158 bng 15 250 50 0 empty empty empty 17 7 0 10 -262144
-1 -1;
#X obj 347 158 bng 15 250 50 0 empty empty empty 17 7 0 10 -262144
-1 -1;
#X obj 380 158 bng 15 250 50 0 empty empty empty 17 7 0 10 -262144
-1 -1;
#X obj 411 158 bng 15 250 50 0 empty empty empty 17 7 0 10 -262144
-1 -1;
#X obj 169 189 bng 15 250 50 0 empty empty empty 17 7 0 10 -262144
-1 -1;
#X obj 206 190 bng 15 250 50 0 empty empty empty 17 7 0 10 -262144
-1 -1;
#X obj 241 190 bng 15 250 50 0 empty empty empty 17 7 0 10 -262144
-1 -1;
#X obj 275 190 bng 15 250 50 0 empty empty empty 17 7 0 10 -262144
-1 -1;
#X obj 311 190 bng 15 250 50 0 empty empty empty 17 7 0 10 -262144
-1 -1;
#X obj 346 190 bng 15 250 50 0 empty empty empty 17 7 0 10 -262144
-1 -1;
#X obj 381 190 bng 15 250 50 0 empty empty empty 17 7 0 10 -262144
-1 -1;
#X msg 314 319 13;
#X msg 351 318 14;
#X msg 386 318 15;
#X msg 422 317 16;
#X msg 458 317 17;
#X msg 495 317 18;
#X msg 531 317 19;
#X msg 302 353 20;
#X msg 336 353 21;
#X msg 372 352 22;
#X msg 407 352 23;
#X msg 444 351 24;
#X msg 480 351 25;
#X msg 516 351 26;
#X connect 0 0 24 0;
#X connect 1 0 13 0;
#X connect 1 0 15 0;
#X connect 2 0 22 0;
#X connect 3 0 25 0;
#X connect 4 0 26 0;
#X connect 5 0 27 0;
#X connect 6 0 28 0;
#X connect 7 0 29 0;
#X connect 8 0 30 0;
#X connect 9 0 31 0;
#X connect 10 0 32 0;
#X connect 11 0 33 0;
#X connect 12 0 34 0;
#X connect 13 0 14 0;
#X connect 16 0 18 0;
#X connect 18 0 1 0;
#X connect 19 0 20 0;
#X connect 20 0 35 0;
#X connect 22 0 23 0;
#X connect 24 0 23 0;
#X connect 25 0 23 0;
#X connect 26 0 23 0;
#X connect 27 0 23 0;
#X connect 28 0 23 0;
#X connect 29 0 23 0;
#X connect 30 0 23 0;
#X connect 31 0 23 0;
#X connect 32 0 23 0;
#X connect 33 0 23 0;
#X connect 34 0 23 0;
#X connect 35 0 0 0;
#X connect 35 1 2 0;
#X connect 35 2 3 0;
#X connect 35 3 4 0;
#X connect 35 4 5 0;
#X connect 35 5 6 0;
#X connect 35 6 7 0;
#X connect 35 7 8 0;
#X connect 35 8 9 0;
#X connect 35 9 10 0;
#X connect 35 10 11 0;
#X connect 35 11 12 0;
#X connect 35 12 36 0;
#X connect 35 13 37 0;
#X connect 35 14 38 0;
#X connect 35 15 39 0;
#X connect 35 16 40 0;
#X connect 35 17 41 0;
#X connect 35 18 42 0;
#X connect 35 19 43 0;
#X connect 35 20 44 0;
#X connect 35 21 45 0;
#X connect 35 22 46 0;
#X connect 35 23 47 0;
#X connect 35 24 48 0;
#X connect 35 25 49 0;
#X connect 36 0 50 0;
#X connect 37 0 51 0;
#X connect 38 0 52 0;
#X connect 39 0 53 0;
#X connect 40 0 54 0;
#X connect 41 0 55 0;
#X connect 42 0 56 0;
#X connect 43 0 57 0;
#X connect 44 0 58 0;
#X connect 45 0 59 0;
#X connect 46 0 60 0;
#X connect 47 0 61 0;
#X connect 48 0 62 0;
#X connect 49 0 63 0;
#X connect 50 0 23 0;
#X connect 51 0 23 0;
#X connect 52 0 23 0;
#X connect 53 0 23 0;
#X connect 54 0 23 0;
#X connect 55 0 23 0;
#X connect 56 0 23 0;
#X connect 57 0 23 0;
#X connect 58 0 23 0;
#X connect 59 0 23 0;
#X connect 60 0 23 0;
#X connect 61 0 23 0;
#X connect 62 0 23 0;
#X connect 63 0 23 0;
#X coords 0 -1 1 1 500 150 2 100 100;
