#N canvas -91 136 1920 1016 10;
#X obj 29 29 loadbang;
#X obj 501 28 bng 15 250 50 0 empty empty generate_new_harmonics 17
7 0 10 -262144 -1 -1;
#X obj 52 141 f;
#X floatatom 94 167 5 0 0 0 - - -;
#X obj 52 167 + 60;
#X msg 29 54 60;
#X obj 223 122 random 100;
#X floatatom 223 204 5 0 0 0 - - -;
#X obj 223 147 f;
#X obj 223 175 / 100;
#X obj 208 226 +;
#X obj 169 226 f;
#X floatatom 169 253 5 0 0 0 - - -;
#X msg 68 54 1;
#X obj 314 45 random 100;
#X floatatom 314 127 5 0 0 0 - - -;
#X obj 314 70 f;
#X obj 169 368 pack f f f;
#X msg 169 398 obj 500 \$3 harmonics2 \$1 \$2;
#X obj 314 97 / 100;
#X obj 314 262 s set-amp;
#X obj 314 235 bang;
#X obj 314 207 delay 100;
#X msg 314 160 0.2;
#X obj 169 431 s pd-performer1.pd;
#X text 222 104 freq rand;
#X text 314 27 amp rand;
#X text 51 184 position;
#X obj 55 256 / 60;
#X floatatom 55 282 5 0 0 0 - - -;
#X text 6 281 counter;
#X obj 55 320 < 20;
#X floatatom 55 353 5 0 0 0 - - -;
#X obj 55 433 select 0 1;
#X obj 100 546 cnv 15 100 60 empty empty empty 20 12 0 14 -233017 -66577
0;
#X connect 0 0 5 0;
#X connect 0 0 13 0;
#X connect 0 0 23 0;
#X connect 1 0 2 0;
#X connect 1 0 6 0;
#X connect 1 0 11 0;
#X connect 1 0 14 0;
#X connect 1 0 22 0;
#X connect 2 0 3 0;
#X connect 2 0 4 0;
#X connect 3 0 17 2;
#X connect 3 0 28 0;
#X connect 4 0 2 1;
#X connect 5 0 2 1;
#X connect 6 0 8 0;
#X connect 7 0 10 1;
#X connect 8 0 9 0;
#X connect 9 0 7 0;
#X connect 10 0 11 1;
#X connect 11 0 10 0;
#X connect 11 0 12 0;
#X connect 11 0 17 0;
#X connect 13 0 11 1;
#X connect 13 0 32 0;
#X connect 14 0 16 0;
#X connect 16 0 19 0;
#X connect 17 0 18 0;
#X connect 18 0 24 0;
#X connect 19 0 15 0;
#X connect 19 0 17 1;
#X connect 21 0 20 0;
#X connect 22 0 21 0;
#X connect 23 0 17 1;
#X connect 28 0 29 0;
#X connect 29 0 31 0;
#X connect 31 0 32 0;
#X connect 32 0 33 0;
#X coords 0 -1 1 1 180 1500 2 485 10;
