#N canvas -9 71 1920 946 10;
#X obj 136 62 r sample;
#X obj 1142 480 tabplay~ glass;
#X obj 20 477 r~ play;
#X obj 1089 448 tabplay~ thunder;
#X obj 1036 413 tabplay~ rain;
#X obj 506 253 tabplay~ openguitarcase;
#X obj 136 147 tabplay~ ice;
#X obj 241 211 tabplay~ pourwater;
#X obj 1460 455 tabplay~ icantbelieve;
#X obj 1354 590 tabplay~ guitar;
#X obj 559 290 tabplay~ cutveg;
#X obj 1194 506 tabplay~ door;
#X obj 612 216 tabplay~ gogogo;
#X obj 718 305 tabplay~ water;
#X obj 1247 535 tabplay~ onepage;
#X obj 453 199 tabplay~ fry;
#X obj 400 309 tabplay~ plastic;
#X obj 347 273 tabplay~ throw;
#X obj 983 378 tabplay~ radio;
#X obj 135 656 lop~;
#X obj 72 237 vsl 15 128 0 5000 0 0 empty empty empty 0 -9 0 10 -262144
-1 -1 10160 1;
#X obj 70 61 loadbang;
#X floatatom 72 379 5 0 0 0 - - -;
#X msg 70 82 4000;
#X obj 19 578 dac~;
#X obj 3 738 cnv 15 100 60 empty empty empty 20 12 0 14 -233017 -66577
0;
#X text 60 392 low pass;
#X obj 1301 564 tabplay~ spray;
#X obj 188 181 tabplay~ bird;
#X obj 1407 618 tabplay~ typing;
#X obj 136 96 sel 1 2 3 4 5 6 7 8 9 10 11 12 13 14 15 16 17 18 19 20
21 22 23 24 25 26, f 230;
#X obj 135 629 *~ 0.1;
#X obj 136 687 s~ play;
#X obj 47 520 r volume;
#X obj 19 540 *~;
#X obj 824 336 tabplay~ wind;
#X obj 930 353 tabplay~ disinfection;
#X obj 877 286 tabplay~ walk;
#X obj 771 242 tabplay~ window;
#X obj 294 236 tabplay~ pageflip;
#X obj 665 329 tabplay~ blender;
#X connect 0 0 30 0;
#X connect 1 0 31 0;
#X connect 2 0 34 0;
#X connect 3 0 31 0;
#X connect 4 0 31 0;
#X connect 5 0 31 0;
#X connect 6 0 31 0;
#X connect 7 0 31 0;
#X connect 8 0 31 0;
#X connect 9 0 31 0;
#X connect 10 0 31 0;
#X connect 11 0 31 0;
#X connect 12 0 31 0;
#X connect 13 0 31 0;
#X connect 14 0 31 0;
#X connect 15 0 31 0;
#X connect 16 0 31 0;
#X connect 17 0 31 0;
#X connect 18 0 31 0;
#X connect 19 0 32 0;
#X connect 20 0 19 1;
#X connect 20 0 22 0;
#X connect 21 0 23 0;
#X connect 23 0 20 0;
#X connect 27 0 31 0;
#X connect 28 0 31 0;
#X connect 29 0 31 0;
#X connect 30 0 6 0;
#X connect 30 1 28 0;
#X connect 30 2 7 0;
#X connect 30 3 39 0;
#X connect 30 4 17 0;
#X connect 30 5 16 0;
#X connect 30 6 15 0;
#X connect 30 7 5 0;
#X connect 30 8 10 0;
#X connect 30 9 12 0;
#X connect 30 10 40 0;
#X connect 30 11 13 0;
#X connect 30 12 38 0;
#X connect 30 13 35 0;
#X connect 30 14 37 0;
#X connect 30 15 36 0;
#X connect 30 16 18 0;
#X connect 30 17 4 0;
#X connect 30 18 3 0;
#X connect 30 19 1 0;
#X connect 30 20 11 0;
#X connect 30 21 14 0;
#X connect 30 22 27 0;
#X connect 30 23 9 0;
#X connect 30 24 29 0;
#X connect 30 25 8 0;
#X connect 31 0 19 0;
#X connect 33 0 34 1;
#X connect 34 0 24 0;
#X connect 34 0 24 1;
#X connect 35 0 31 0;
#X connect 36 0 31 0;
#X connect 37 0 31 0;
#X connect 38 0 31 0;
#X connect 39 0 31 0;
#X connect 40 0 31 0;
#X coords 0 -1 1 1 70 180 2 50 230;
