#N canvas 855 265 838 466 10;
#X obj 97 377 dac~;
#X obj 98 311 lop~;
#X obj 268 70 vsl 15 128 0 5000 0 0 empty empty empty 0 -9 0 10 -262144
-1 -1 12700 1;
#X obj 242 9 loadbang;
#X msg 242 34 5000;
#X floatatom 261 213 5 0 0 0 lowpass - -;
#X obj 421 214 cnv 15 100 60 empty empty empty 20 12 0 14 -233017 -66577
0;
#X obj 99 160 expr~ atan($v1);
#X obj 99 187 *~ 0.63662;
#X obj 100 118 *~ 0.1;
#X obj 158 71 r~ wave2;
#X obj 100 41 r~ wave3;
#X obj 342 68 vsl 15 128 0 1 0 0 empty empty empty 0 -9 0 10 -262144
-1 -1 9900 1;
#X floatatom 338 212 5 0 0 0 volume - -;
#X obj 339 258 rmstodb;
#X obj 98 344 *~;
#X obj 568 56 r~ play;
#X obj 595 99 r volume;
#X obj 568 132 *~;
#X obj 568 168 dac~;
#X text 565 24 play sample;
#X msg 337 33 1;
#X connect 1 0 15 0;
#X connect 2 0 5 0;
#X connect 3 0 4 0;
#X connect 3 0 21 0;
#X connect 4 0 2 0;
#X connect 5 0 1 1;
#X connect 7 0 8 0;
#X connect 8 0 1 0;
#X connect 9 0 7 0;
#X connect 10 0 9 0;
#X connect 11 0 9 0;
#X connect 12 0 14 0;
#X connect 12 0 15 1;
#X connect 14 0 13 0;
#X connect 15 0 0 0;
#X connect 15 0 0 1;
#X connect 16 0 18 0;
#X connect 17 0 18 1;
#X connect 18 0 19 0;
#X connect 18 0 19 1;
#X connect 21 0 12 0;
#X coords 0 -1 1 1 130 180 2 250 60;
