#N canvas 290 41 532 693 10;
#X declare -lib zexy;
#X obj 60 48 inlet;
#X msg 60 74 read;
#X obj 126 48 inlet;
#X msg 126 75 start 65536;
#X obj 205 124 bng 15 250 50 0 empty empty empty 17 7 0 10 -262144
-1 -1;
#X obj 205 150 s finished;
#X obj 60 176 unpack;
#X obj 60 202 stripnote;
#X floatatom 60 227 5 0 0 0 - - -;
#X obj 277 67 declare -lib zexy;
#X obj 60 141 cyclone/midiparse;
#X obj 60 110 cyclone/seq;
#X obj 207 270 unpack f f f;
#X obj 207 298 pack;
#X obj 207 352 pack;
#X obj 207 412 coll chain;
#C restore;
#X msg 313 383 clear;
#X obj 358 354 bng 15 250 50 0 empty empty empty 17 7 0 10 -262144
-1 -1;
#X msg 207 383 merge \$1 \$2;
#X obj 207 325 cyclone/sprintf %i%i;
#X text 59 28 read reference file(midi);
#X text 132 108 run midi stream;
#X text 202 167 send signal to trigger generator;
#X text 65 157 stream -> numbers;
#X text 117 203 midi num list -> stream;
#X text 41 241 input: a stream of numbers;
#X text 14 381 transform pairs into key+value;
#X text 356 336 clear current coll!;
#X text 206 429 store probabilities in coll;
#N canvas 1242 109 450 340 chunk 0;
#X obj 93 50 t f f b;
#X obj 112 81 f;
#X obj 112 109 t f b f;
#X obj 113 134 f;
#X obj 93 179 pack f f f;
#X msg 93 209 \$2 \$3 \$1;
#X obj 93 23 inlet;
#X obj 93 256 outlet;
#X text 142 22 pack a stream of midi nums;
#X text 142 258 chunk them into streams of three midi nums;
#X connect 0 0 4 0;
#X connect 0 1 1 1;
#X connect 0 2 1 0;
#X connect 1 0 2 0;
#X connect 2 0 3 1;
#X connect 2 1 3 0;
#X connect 2 2 4 2;
#X connect 3 0 4 1;
#X connect 4 0 5 0;
#X connect 5 0 7 0;
#X connect 6 0 0 0;
#X restore 207 240 pd chunk;
#X text 206 224 chunk into streams of three midi nums;
#X connect 0 0 1 0;
#X connect 1 0 11 0;
#X connect 2 0 3 0;
#X connect 3 0 11 0;
#X connect 4 0 5 0;
#X connect 6 0 7 0;
#X connect 6 1 7 1;
#X connect 7 0 8 0;
#X connect 8 0 29 0;
#X connect 10 0 6 0;
#X connect 11 0 4 0;
#X connect 11 0 10 0;
#X connect 12 0 13 0;
#X connect 12 1 13 1;
#X connect 12 2 14 1;
#X connect 13 0 19 0;
#X connect 14 0 18 0;
#X connect 16 0 15 0;
#X connect 17 0 16 0;
#X connect 18 0 15 0;
#X connect 19 0 14 0;
#X connect 29 0 12 0;
