#N canvas 1196 64 450 300 10;
#X obj 144 77 tgl 15 0 empty empty random_speed 17 7 0 10 -262144 -1
-1 1 1;
#X obj 144 126 random 50;
#X obj 144 104 metro 2000;
#X obj 144 176 outlet;
#X obj 61 198 cnv 15 100 60 empty empty empty 20 12 0 14 -233017 -66577
0;
#X obj 144 147 + 300;
#X connect 0 0 2 0;
#X connect 1 0 5 0;
#X connect 2 0 1 0;
#X connect 5 0 3 0;
#X coords 0 -1 1 1 100 30 2 140 70;
