#N canvas 176 167 1168 582 10;
#X obj 29 29 loadbang;
#X obj 169 32 bng 15 250 50 0 empty empty empty 17 7 0 10 -262144 -1
-1;
#X obj 107 447 s pd-untitledtest.pd;
#X obj 703 112 s freq2;
#X obj 702 214 catch~ sum_sines2;
#X obj 701 462 dac~;
#X obj 831 112 vsl 15 128 0 1 0 0 empty empty empty 0 -9 0 10 -262144
-1 -1 3000 1;
#X obj 52 141 f;
#X floatatom 94 167 5 0 0 0 - - -;
#X obj 52 167 + 60;
#X msg 29 54 60;
#X obj 223 122 random 100;
#X floatatom 223 204 5 0 0 0 - - -;
#X obj 223 147 f;
#X obj 223 175 / 100;
#X obj 208 226 +;
#X obj 169 226 f;
#X floatatom 169 253 5 0 0 0 - - -;
#X msg 68 54 1;
#X obj 831 50 loadbang;
#X msg 831 77 0.2;
#X obj 703 241 *~;
#X obj 702 426 lop~;
#X obj 940 109 vsl 15 128 0 4000 0 0 empty empty empty 0 -9 0 10 -262144
-1 -1 1200 1;
#X text 823 249 volume;
#X text 927 246 low pass;
#X msg 940 78 4000;
#X floatatom 967 225 5 0 0 0 - - -;
#X msg 703 79 5;
#X obj 314 45 random 100;
#X floatatom 314 127 5 0 0 0 - - -;
#X obj 314 70 f;
#X obj 107 367 pack f f f;
#X msg 107 414 obj 500 \$3 harmonics2 \$1 \$2;
#X obj 314 97 / 100;
#X obj 314 262 s set-amp;
#X obj 314 235 bang;
#X obj 314 207 delay 100;
#X obj 704 355 expr~ atan($v1);
#X obj 703 392 *~ 0.63662;
#X obj 704 310 *~ 0.1;
#X msg 314 160 0.2;
#X obj 1045 253 s overall-amp;
#X obj 1045 105 vsl 15 128 0 127 0 0 empty empty empty 0 -9 0 10 -262144
-1 -1 0 1;
#X connect 0 0 10 0;
#X connect 0 0 18 0;
#X connect 0 0 41 0;
#X connect 1 0 7 0;
#X connect 1 0 11 0;
#X connect 1 0 16 0;
#X connect 1 0 29 0;
#X connect 1 0 37 0;
#X connect 4 0 21 0;
#X connect 6 0 21 1;
#X connect 7 0 8 0;
#X connect 7 0 9 0;
#X connect 8 0 32 2;
#X connect 9 0 7 1;
#X connect 10 0 7 1;
#X connect 11 0 13 0;
#X connect 12 0 15 1;
#X connect 13 0 14 0;
#X connect 14 0 12 0;
#X connect 15 0 16 1;
#X connect 16 0 15 0;
#X connect 16 0 17 0;
#X connect 16 0 32 0;
#X connect 18 0 16 1;
#X connect 19 0 20 0;
#X connect 19 0 26 0;
#X connect 20 0 6 0;
#X connect 21 0 40 0;
#X connect 22 0 5 0;
#X connect 22 0 5 1;
#X connect 23 0 22 1;
#X connect 23 0 27 0;
#X connect 26 0 23 0;
#X connect 28 0 3 0;
#X connect 29 0 31 0;
#X connect 31 0 34 0;
#X connect 32 0 33 0;
#X connect 33 0 2 0;
#X connect 34 0 30 0;
#X connect 34 0 32 1;
#X connect 36 0 35 0;
#X connect 37 0 36 0;
#X connect 38 0 39 0;
#X connect 39 0 22 0;
#X connect 40 0 38 0;
#X connect 41 0 32 1;
#X connect 43 0 42 0;
