#N canvas -11 -11 1920 1016 10;
#X obj 235 164 keyboard;
#X obj 166 519 cnv 15 100 60 empty empty empty 20 12 0 14 -233017 -66577
0;
#X text 132 112 wave1;
#X obj 821 136 read_files;
#X obj 136 149 play_files;
#X text 166 112 : real world samples;
#X text 821 117 read samples;
#X coords 0 -1 1 1 650 250 2 100 100;
