#N canvas 666 101 958 470 10;
#X floatatom 379 141 5 0 0 0 - - -;
#X obj 19 140 rmstodb;
#X obj 11 45 loadbang;
#X msg 11 65 0.1;
#X obj 112 128 envelope-wave2;
#X obj 356 12 loadbang;
#X obj 307 130 hradio 15 1 0 3 empty empty empty 0 -8 0 10 -262144
-1 -1 1;
#X obj 433 104 select 0 1 2;
#X obj 433 167 s freq2;
#X obj 53 562 cnv 15 100 60 empty empty empty 20 12 0 14 -233017 -66577
0;
#X obj 258 65 r freq2;
#X floatatom 307 159 5 0 0 0 - - -;
#X text 306 174 current freq;
#X text 378 155 volume;
#X text 112 105 wave2;
#X obj 356 38 metro 5000;
#X obj 11 110 s volume2;
#X msg 489 136 45.22;
#X msg 545 136 52.99;
#X msg 433 136 42.62;
#X floatatom 494 56 5 0 0 0 - - -;
#X obj 432 56 random 3;
#X connect 1 0 0 0;
#X connect 2 0 3 0;
#X connect 3 0 16 0;
#X connect 3 0 1 0;
#X connect 5 0 15 0;
#X connect 6 0 7 0;
#X connect 7 0 19 0;
#X connect 7 1 17 0;
#X connect 7 2 18 0;
#X connect 10 0 11 0;
#X connect 15 0 21 0;
#X connect 17 0 8 0;
#X connect 18 0 8 0;
#X connect 19 0 8 0;
#X connect 21 0 20 0;
#X connect 21 0 6 0;
#X coords 0 -1 1 1 320 100 2 100 100;
