#N canvas 175 177 733 556 10;
#X floatatom 388 142 5 0 0 0 - - -;
#X obj 12 139 rmstodb;
#X obj 11 45 loadbang;
#X msg 11 65 0.1;
#X obj 356 12 loadbang;
#X obj 304 130 hradio 15 1 0 3 empty empty empty 0 -8 0 10 -262144
-1 -1 0;
#X obj 453 102 select 0 1 2;
#X floatatom 304 158 5 0 0 0 - - -;
#X text 302 174 current freq;
#X text 383 156 volume;
#X obj 356 38 metro 5000;
#X obj 453 165 s freq3;
#X msg 453 134 66.62;
#X msg 559 133 70.88;
#X msg 508 133 68.12;
#X obj 106 127 envelope-wave3;
#X obj 258 65 r freq3;
#X obj 11 110 s volume3;
#X obj 563 208 cnv 15 100 60 empty empty empty 20 12 0 14 -233017 -66577
0;
#X text 112 104 wave3;
#X obj 453 52 random 3;
#X floatatom 517 52 5 0 0 0 - - -;
#X connect 1 0 0 0;
#X connect 2 0 3 0;
#X connect 3 0 17 0;
#X connect 3 0 1 0;
#X connect 4 0 10 0;
#X connect 5 0 6 0;
#X connect 6 0 12 0;
#X connect 6 1 14 0;
#X connect 6 2 13 0;
#X connect 10 0 20 0;
#X connect 12 0 11 0;
#X connect 13 0 11 0;
#X connect 14 0 11 0;
#X connect 16 0 7 0;
#X connect 20 0 5 0;
#X connect 20 0 21 0;
#X coords 0 -1 1 1 330 100 2 100 100;
