#N canvas -11 -11 1920 1016 10;
#X declare -lib zexy;
#X obj 100 120 tgl 40 0 recMsg \$0-x empty 17 7 0 48 -262144 -1 -1
0 127;
#X obj 100 120 cnv 15 50 50 empty recStatus REC 18 36 0 20 -258113
-66577 0;
#X obj 194 354 r recFades;
#X obj 194 379 line~;
#X obj 108 402 *~;
#X obj 297 358 t b b, f 10;
#X obj 297 432 pack f f f f f f;
#X obj 128 232 inlet~;
#X obj 179 402 *~;
#X obj 179 232 inlet~;
#X msg 381 631 stop;
#X obj 372 657 s recInstr;
#X obj 381 527 r recMsg;
#X obj 381 548 sel 0;
#X obj 297 658 s recFades;
#X obj 297 479 t b s, f 13;
#X msg 297 589 0 \, 1 50;
#X obj 381 572 t b b;
#X obj 381 609 delay 55;
#X msg 308 633 0 50;
#X obj 297 126 r recMsg;
#X obj 297 337 sel 1;
#X obj 297 315 != 0;
#X obj 116 205 r recInstr;
#X msg 372 501 open -bytes 3 ./\$1.wav \, start;
#X obj 116 425 writesf~ 2, f 11;
#X obj 173 125 declare -lib zexy;
#X obj 354 380 time;
#X obj 297 380 date;
#X obj 297 454 makesymbol %s|%s|%s@%s%s%s%;
#X obj 309 172 metro 500;
#X obj 309 196 tgl 15 0 empty empty empty 17 7 0 10 -262144 -1 -1 0
1;
#X obj 309 217 sel 0 1;
#X msg 328 239 symbol STOP;
#X msg 309 259 symbol;
#X obj 370 172 sel 0;
#X msg 309 282 \; recStatus label \$1 \, label_pos 12 36;
#X msg 370 194 \; recStatus label REC \, label_pos 18 36;
#X connect 2 0 3 0;
#X connect 3 0 4 1;
#X connect 3 0 8 1;
#X connect 4 0 25 0;
#X connect 5 0 28 0;
#X connect 5 1 27 0;
#X connect 6 0 29 0;
#X connect 7 0 4 0;
#X connect 8 0 25 1;
#X connect 9 0 8 0;
#X connect 10 0 11 0;
#X connect 12 0 13 0;
#X connect 13 0 17 0;
#X connect 15 0 16 0;
#X connect 15 1 24 0;
#X connect 16 0 14 0;
#X connect 17 0 18 0;
#X connect 17 1 19 0;
#X connect 18 0 10 0;
#X connect 19 0 14 0;
#X connect 20 0 22 0;
#X connect 20 0 35 0;
#X connect 20 0 30 0;
#X connect 21 0 5 0;
#X connect 22 0 21 0;
#X connect 23 0 25 0;
#X connect 24 0 11 0;
#X connect 27 0 6 3;
#X connect 27 1 6 4;
#X connect 27 2 6 5;
#X connect 28 0 6 0;
#X connect 28 1 6 1;
#X connect 28 2 6 2;
#X connect 29 0 15 0;
#X connect 30 0 31 0;
#X connect 31 0 32 0;
#X connect 32 0 34 0;
#X connect 32 1 33 0;
#X connect 33 0 36 0;
#X connect 34 0 36 0;
#X connect 35 0 37 0;
#X coords 0 -1 1 1 50 70 1 100 100;
