#N canvas 1086 154 801 646 10;
#X obj 93 17 inlet;
#X obj 93 41 bng 15 250 50 0 empty empty empty 17 7 0 10 -262144 -1
-1;
#X obj 93 63 f;
#X obj 93 131 length;
#X obj 93 158 t b f;
#X obj 93 181 random;
#X obj 93 207 + 1;
#X obj 142 207 pack;
#X obj 333 15 inlet;
#X msg 333 48 next;
#X obj 379 15 r finished;
#X floatatom 333 101 5 0 0 0 - - -;
#X floatatom 107 279 5 0 0 0 current_midinote - -;
#X text 92 409 reference: www.algorithmiccomposer.com;
#X obj 107 307 mtof;
#X obj 107 329 s freq;
#X obj 352 339 cnv 15 100 60 empty empty empty 20 12 0 14 -233017 -66577
0;
#X obj 93 104 cyclone/coll chain;
#C restore;
#X obj 333 75 cyclone/coll chain;
#C restore;
#X obj 142 255 cyclone/coll chain;
#C restore;
#X obj 93 84 t f f;
#X obj 305 247 % 100;
#X obj 305 273 pack;
#X msg 305 221 \$2;
#X floatatom 305 326 5 0 0 0 - - -;
#X msg 142 232 nth \$2 \$1;
#X obj 305 298 cyclone/sprintf %i%i;
#X text 381 32 finish receiving transition matrix;
#X text 9 62 previous note;
#X text 10 0 generate note with randomized speed;
#X text 210 104 get value with key;
#X text 140 130 find length;
#X text 138 181 random between 0 to length of values;
#X text 31 233 get the nth value;
#X text 12 207 add to index;
#X text 158 280 generate a new note;
#X text 105 346 send freq to synthesizer;
#X text 348 282 previous two notes;
#X connect 0 0 1 0;
#X connect 1 0 2 0;
#X connect 2 0 20 0;
#X connect 3 0 4 0;
#X connect 4 0 5 0;
#X connect 4 1 5 1;
#X connect 5 0 6 0;
#X connect 6 0 7 0;
#X connect 7 0 25 0;
#X connect 7 0 23 0;
#X connect 8 0 9 0;
#X connect 9 0 18 0;
#X connect 10 0 9 0;
#X connect 11 0 2 1;
#X connect 12 0 14 0;
#X connect 14 0 15 0;
#X connect 17 0 3 0;
#X connect 18 1 11 0;
#X connect 19 0 12 0;
#X connect 19 0 22 1;
#X connect 20 0 17 0;
#X connect 20 1 7 1;
#X connect 21 0 22 0;
#X connect 22 0 26 0;
#X connect 23 0 21 0;
#X connect 24 0 2 1;
#X connect 25 0 19 0;
#X connect 26 0 24 0;
#X coords 0 -1 1 1 155 25 2 0 275;
