#N canvas 435 124 450 300 10;
#X obj 39 205 throw~ sum_sines;
#X obj 39 138 osc~ 0;
#X obj 39 88 sig~ 100;
#X obj 39 62 receive freq;
#X obj 39 113 *~ \$1;
#X obj 40 180 *~ 1;
#X connect 1 0 5 0;
#X connect 2 0 4 0;
#X connect 3 0 2 0;
#X connect 4 0 1 0;
#X connect 5 0 0 0;
