#N canvas 868 46 708 408 10;
#X declare -lib zexy;
#X obj 60 48 inlet;
#X msg 60 74 read;
#X obj 126 48 inlet;
#X msg 126 75 start 65536;
#X obj 205 124 bng 15 250 50 0 empty empty empty 17 7 0 10 -262144
-1 -1;
#X obj 205 150 s finished;
#X obj 60 192 unpack;
#X obj 60 221 stripnote;
#X floatatom 60 251 5 0 0 0 - - -;
#X obj 557 21 declare -lib zexy;
#X obj 205 264 t f b f;
#X msg 315 321 clear;
#X obj 315 289 bng 15 250 50 0 empty empty empty 17 7 0 10 -262144
-1 -1;
#X obj 205 351 cyclone/coll chain;
#C restore;
#X obj 60 141 cyclone/midiparse;
#X obj 60 110 cyclone/seq;
#X msg 205 322 merge \$1 \$2;
#X obj 205 293 pack f f;
#X text 94 250 input: a stream of numbers;
#X text 71 293 pack them into pairs;
#X text 203 368 store probabilities in coll;
#X text 18 321 transform pairs into key+value;
#X text 312 272 clear current coll!;
#X text 202 167 send signal to trigger generator;
#X text 132 108 run midi stream;
#X text 65 157 stream -> numbers;
#X text 117 203 midi num list -> stream;
#X text 35 30 read reference file(midi);
#X connect 0 0 1 0;
#X connect 1 0 15 0;
#X connect 2 0 3 0;
#X connect 3 0 15 0;
#X connect 4 0 5 0;
#X connect 6 0 7 0;
#X connect 6 1 7 1;
#X connect 7 0 8 0;
#X connect 8 0 10 0;
#X connect 10 0 17 1;
#X connect 10 2 17 0;
#X connect 11 0 13 0;
#X connect 12 0 11 0;
#X connect 14 0 6 0;
#X connect 15 0 4 0;
#X connect 15 0 14 0;
#X connect 16 0 13 0;
#X connect 17 0 16 0;
