#N canvas -11 -11 1920 1016 10;
#X msg 508 53 \; pd dsp \$1;
#X obj 270 29 bng 15 250 50 0 empty empty empty 17 7 0 10 -262144 -1
-1;
#N canvas -11 228 1920 1016 read_drum1 0;
#X obj 30 105 soundfiler;
#X floatatom 96 134 5 0 0 0 - - -;
#X obj 30 31 inlet;
#X msg 30 56 bang;
#N canvas 0 50 450 250 (subpatch) 0;
#X array drum1 14518 float 2;
#X coords 0 1 14518 -1 200 140 1 0 0;
#X restore 207 144 graph;
#X msg 30 78 read -resize lt01.wav drum1;
#X connect 0 0 1 0;
#X connect 2 0 3 0;
#X connect 3 0 5 0;
#X connect 5 0 0 0;
#X restore 82 65 pd read_drum1;
#N canvas 192 315 1920 1016 read_drum2 0;
#X obj 18 110 soundfiler;
#X obj 18 32 inlet;
#X msg 18 57 bang;
#X floatatom 17 139 5 0 0 0 - - -;
#N canvas 0 50 450 250 (subpatch) 0;
#X array drum2 10956 float 2;
#X coords 0 1 10956 -1 200 140 1 0 0;
#X restore 125 138 graph;
#X msg 18 84 read -resize bd10.wav drum2;
#X connect 0 0 3 0;
#X connect 1 0 2 0;
#X connect 2 0 5 0;
#X connect 5 0 0 0;
#X restore 174 65 pd read_drum2;
#N canvas -160 351 1920 738 read_drum3 0;
#X obj 18 110 soundfiler;
#X obj 18 32 inlet;
#X msg 18 57 bang;
#X floatatom 33 139 5 0 0 0 - - -;
#N canvas 0 50 450 250 (subpatch) 0;
#X array drum3 10048 float 2;
#X coords 0 1 10048 -1 200 140 1 0 0;
#X restore 133 123 graph;
#X msg 18 84 read -resize hh04.wav drum3;
#X connect 0 0 3 0;
#X connect 1 0 2 0;
#X connect 2 0 5 0;
#X connect 5 0 0 0;
#X restore 270 65 pd read_drum3;
#N canvas 910 276 771 472 read_drum4 0;
#X obj 18 110 soundfiler;
#X obj 18 32 inlet;
#X msg 18 57 bang;
#X floatatom 33 139 5 0 0 0 - - -;
#N canvas 0 50 450 250 (subpatch) 0;
#X array drum4 33004 float 2;
#X coords 0 1 33004 -1 200 140 1 0 0;
#X restore 160 128 graph;
#X msg 18 84 read -resize cp03.wav drum4;
#X connect 0 0 3 0;
#X connect 1 0 2 0;
#X connect 2 0 5 0;
#X connect 5 0 0 0;
#X restore 370 65 pd read_drum4;
#X obj 508 28 loadbang;
#X text 290 28 click to read all soundfiles;
#N canvas 0 0 735 1004 bpm_ctrl 0;
#X obj 63 375 /, f 18;
#X obj 63 349 float 60;
#X obj 63 324 trigger bang float;
#X obj 123 349 * 500;
#X floatatom 105 106 5 0 0 0 - - -;
#X obj 113 143 vsl 15 128 40 300 0 0 empty empty bpm 0 -9 0 10 -262144
-1 -1 6838 1;
#X obj 62 410 s bpm;
#X obj 181 62 loadbang;
#X msg 181 92 180;
#X connect 0 0 6 0;
#X connect 1 0 3 0;
#X connect 2 0 1 0;
#X connect 2 1 0 1;
#X connect 3 0 0 0;
#X connect 4 0 2 0;
#X connect 5 0 4 0;
#X connect 7 0 8 0;
#X connect 8 0 5 0;
#X coords 0 -1 1 1 40 200 2 100 100;
#X restore 40 119 pd bpm_ctrl;
#X obj 395 608 cnv 15 100 60 empty empty empty 20 12 0 14 -233017 -66577
0;
#N canvas 16 165 1920 1016 drums 0;
#X obj 223 110 tgl 15 0 empty empty empty 17 7 0 10 -262144 -1 -1 0
1;
#X obj 76 72 f;
#X obj 109 72 + 1;
#X obj 139 72 mod 8;
#X obj 285 109 hradio 15 1 0 8 empty empty empty 0 -8 0 10 -262144
-1 -1 3;
#X obj 76 41 metro 1000;
#X text 180 110 start;
#X obj 133 18 r bpm;
#N canvas 1005 129 722 886 play_drum1 0;
#X obj 157 253 line~;
#X obj 142 277 *~;
#X obj 66 277 env~ 16384;
#X floatatom 66 301 5 0 0 0 - - -;
#X msg 55 109 set drum1;
#X obj 142 141 tabplay~ drum1;
#X obj 142 336 throw~ out1;
#X obj 157 91 r out_drum1;
#X obj 141 308 *~;
#X obj 179 285 r vol_drum1;
#X msg 157 229 0.1 100;
#X connect 0 0 1 1;
#X connect 1 0 8 0;
#X connect 2 0 3 0;
#X connect 4 0 5 0;
#X connect 5 0 1 0;
#X connect 5 0 2 0;
#X connect 7 0 5 0;
#X connect 7 0 10 0;
#X connect 8 0 6 0;
#X connect 9 0 8 1;
#X connect 10 0 0 0;
#X restore 6 146 pd play_drum1;
#N canvas 288 206 717 831 play_drum2 0;
#X obj 185 171 line~;
#X obj 170 195 *~;
#X msg 185 147 0.1 100;
#X obj 94 195 env~ 16384;
#X floatatom 94 219 5 0 0 0 - - -;
#X msg 83 92 set drum2;
#X obj 141 121 tabplay~ drum2;
#X obj 170 254 throw~ out2;
#X obj 184 69 r out_drum2;
#X obj 170 227 *~;
#X obj 216 210 r vol_drum2;
#X connect 0 0 1 1;
#X connect 1 0 9 0;
#X connect 2 0 0 0;
#X connect 3 0 4 0;
#X connect 5 0 6 0;
#X connect 6 0 1 0;
#X connect 6 0 3 0;
#X connect 8 0 6 0;
#X connect 8 0 2 0;
#X connect 9 0 7 0;
#X connect 10 0 9 1;
#X restore 6 177 pd play_drum2;
#N canvas -66 188 690 1016 play_drum3 0;
#X obj 137 169 line~;
#X obj 122 193 *~;
#X msg 137 145 0.1 100;
#X obj 46 193 env~ 16384;
#X floatatom 46 217 5 0 0 0 - - -;
#X obj 93 119 tabplay~ drum3;
#X obj 122 252 throw~ out3;
#X msg 35 90 set drum3;
#X obj 137 68 r out_drum3;
#X obj 122 226 *~;
#X obj 213 210 r vol_drum3;
#X connect 0 0 1 1;
#X connect 1 0 9 0;
#X connect 2 0 0 0;
#X connect 3 0 4 0;
#X connect 5 0 1 0;
#X connect 5 0 3 0;
#X connect 7 0 5 0;
#X connect 8 0 5 0;
#X connect 8 0 2 0;
#X connect 9 0 6 0;
#X connect 10 0 9 1;
#X restore 6 208 pd play_drum3;
#N canvas -22 68 1596 1016 play_drum4 0;
#X obj 159 147 line~;
#X obj 144 171 *~;
#X msg 159 123 0.1 100;
#X obj 68 171 env~ 16384;
#X floatatom 68 195 5 0 0 0 - - -;
#X obj 159 62 bng 15 250 50 0 empty empty empty 17 7 0 10 -262144 -1
-1;
#X msg 57 68 set drum4;
#X obj 115 97 tabplay~ drum4;
#X obj 144 230 throw~ out4;
#X obj 159 25 r out_drum4;
#X obj 144 199 *~;
#X obj 225 184 r vol_drum4;
#X connect 0 0 1 1;
#X connect 1 0 10 0;
#X connect 2 0 0 0;
#X connect 3 0 4 0;
#X connect 5 0 2 0;
#X connect 5 0 7 0;
#X connect 6 0 7 0;
#X connect 7 0 1 0;
#X connect 7 0 3 0;
#X connect 9 0 5 0;
#X connect 10 0 8 0;
#X connect 11 0 10 1;
#X restore 6 239 pd play_drum4;
#X obj 254 40 s in0;
#X obj 254 9 select 0 1 2 3 4 5 6 7 8;
#X obj 294 41 s in1;
#X obj 336 41 s in2;
#X obj 377 41 s in3;
#X obj 415 41 s in4;
#X obj 456 41 s in5;
#X obj 498 41 s in6;
#X obj 538 41 s in7;
#X text 122 267 drum4:;
#X text 124 226 drum3:;
#X text 124 184 drum2:;
#X text 125 145 drum1:;
#X obj 484 145 hsl 50 10 0 1 0 0 empty empty volume -2 -8 0 10 -262144
-1 -1 2450 1;
#X obj 484 232 hsl 50 10 0 1 0 0 empty empty volume -2 -8 0 10 -262144
-1 -1 2450 1;
#X obj 484 189 hsl 50 10 0 1 0 0 empty empty volume -2 -8 0 10 -262144
-1 -1 2450 1;
#X obj 484 276 hsl 50 10 0 1 0 0 empty empty volume -2 -8 0 10 -262144
-1 -1 2450 1;
#X obj 272 72 s vol_drum1;
#X obj 349 72 s vol_drum2;
#X obj 425 72 s vol_drum3;
#X obj 498 72 s vol_drum4;
#X obj 602 123 loadbang;
#X msg 602 154 0.5;
#X obj 168 134 button1 in0;
#X obj 208 134 button1 in1;
#X obj 323 134 button1 in4;
#X obj 285 134 button1 in3;
#X obj 361 133 button1 in5;
#X obj 400 133 button1 in6;
#X obj 437 133 button1 in7;
#X obj 168 178 button2 in0;
#X obj 208 178 button2 in1;
#X obj 246 178 button2 in2;
#X obj 285 178 button2 in3;
#X obj 323 178 button2 in4;
#X obj 361 178 button2 in5;
#X obj 246 134 button1 in2;
#X obj 400 178 button2 in6;
#X obj 437 178 button2 in7;
#X obj 168 220 button3 in0;
#X obj 208 220 button3 in1;
#X obj 246 220 button3 in2;
#X obj 285 221 button3 in3;
#X obj 323 221 button3 in4;
#X obj 361 221 button3 in5;
#X obj 400 221 button3 in6;
#X obj 437 221 button3 in7;
#X obj 168 264 button4 in0;
#X obj 208 264 button4 in1;
#X obj 246 264 button4 in2;
#X obj 285 264 button4 in3;
#X obj 323 265 button4 in4;
#X obj 361 264 button4 in5;
#X obj 400 264 button4 in6;
#X obj 438 264 button4 in7;
#X connect 0 0 5 0;
#X connect 1 0 2 0;
#X connect 1 0 3 0;
#X connect 2 0 1 1;
#X connect 3 0 4 0;
#X connect 4 0 13 0;
#X connect 5 0 1 0;
#X connect 7 0 5 1;
#X connect 13 0 12 0;
#X connect 13 1 14 0;
#X connect 13 2 15 0;
#X connect 13 3 16 0;
#X connect 13 4 17 0;
#X connect 13 5 18 0;
#X connect 13 6 19 0;
#X connect 13 7 20 0;
#X connect 25 0 29 0;
#X connect 26 0 31 0;
#X connect 27 0 30 0;
#X connect 28 0 32 0;
#X connect 33 0 34 0;
#X connect 34 0 25 0;
#X connect 34 0 27 0;
#X connect 34 0 26 0;
#X connect 34 0 28 0;
#X coords 0 -1 1 1 450 200 2 100 100;
#X restore 176 118 pd drums;
#X obj 274 607 cnv 15 100 60 empty empty empty 20 12 0 14 -233017 -66577
0;
#N canvas 749 67 1102 916 pan 0;
#X obj 217 82 catch~ out2;
#X obj 217 58 catch~ out1;
#X obj 217 107 catch~ out3;
#X obj 218 133 catch~ out4;
#X obj 260 366 *~;
#X obj 110 144 vsl 15 128 0 127 0 0 empty empty pan 0 -9 0 10 -262144
-1 -1 2000 1;
#X obj 191 366 *~;
#X obj 213 408 dac~;
#X obj 136 145 vsl 15 128 0 1 0 0 empty empty vol 0 -9 0 10 -262144
-1 -1 6350 1;
#X text 157 366 left;
#X text 225 365 right;
#X obj 284 268 sqrt;
#X floatatom 284 340 5 0 0 0 - - -;
#X obj 284 291 - 1;
#X obj 284 313 * -1;
#X floatatom 109 342 5 0 0 0 - - -;
#X obj 109 315 sqrt;
#X obj 24 67 loadbang;
#X msg 24 107 0.5;
#X msg 60 108 20;
#X connect 0 0 6 0;
#X connect 0 0 4 0;
#X connect 1 0 6 0;
#X connect 1 0 4 0;
#X connect 2 0 6 0;
#X connect 2 0 4 0;
#X connect 3 0 6 0;
#X connect 3 0 4 0;
#X connect 4 0 7 1;
#X connect 5 0 16 0;
#X connect 5 0 11 0;
#X connect 6 0 7 0;
#X connect 8 0 6 1;
#X connect 8 0 4 1;
#X connect 11 0 13 0;
#X connect 12 0 4 1;
#X connect 13 0 14 0;
#X connect 14 0 12 0;
#X connect 15 0 6 1;
#X connect 16 0 15 0;
#X connect 17 0 18 0;
#X connect 17 0 19 0;
#X connect 18 0 8 0;
#X connect 19 0 5 0;
#X coords 0 -1 1 1 60 200 2 100 100;
#X restore 93 118 pd pan;
#X obj 516 610 cnv 15 100 60 empty empty empty 20 12 0 14 -233017 -66577
0;
#X text 36 27 Tiange Zhu drum_machine.pd;
#X connect 1 0 2 0;
#X connect 1 0 3 0;
#X connect 1 0 4 0;
#X connect 1 0 5 0;
#X connect 6 0 0 0;
