#N struct 1059-point float x0 float y0 float xs float ys float fg float
in float gridx float gridy;
#N struct 1068-point float x0 float y0 float xs float ys float fg float
in float gridx float gridy;
#N struct 1077-point float x0 float y0 float xs float ys float fg float
in float gridx float gridy;
#N struct 1087-point float x0 float y0 float xs float ys float fg float
in float gridx float gridy;
#N struct 1101-point float x0 float y0 float xs float ys float fg float
in float gridx float gridy;
#N struct 1110-point float x0 float y0 float xs float ys float fg float
in float gridx float gridy;
#N struct 1119-point float x0 float y0 float xs float ys float fg float
in float gridx float gridy;
#N struct 1129-point float x0 float y0 float xs float ys float fg float
in float gridx float gridy;
#N canvas 2869 -11 2880 1556 10;
#X obj 342 319 wave1;
#X obj 457 630 wave2;
#X obj 350 184 tgl 15 0 empty empty empty 17 7 0 10 -262144 -1 -1 0
1;
#X text 368 184 start;
#X msg 349 213 \; pd dsp \$1;
#X obj 840 632 wave3;
#X obj 1408 782 play_drone;
#X obj 609 210 performer1;
#X obj 812 211 osc_inout;
#X obj 1211 120 harmonic_control_wave3 p2;
#N canvas 12 55 1268 670 spatial 0;
#X obj 68 251 else/pan4~, f 29;
#X obj 105 310 else/meter4~;
#X obj 99 541 throw~ ch1, f 6;
#X obj 331 253 else/pan4~, f 21;
#X obj 328 311 else/meter4~;
#X obj 578 252 else/pan4~, f 23;
#X obj 575 310 else/meter4~;
#X obj 151 541 throw~ ch2, f 6;
#X obj 205 540 throw~ ch3, f 6;
#X obj 261 540 throw~ ch4, f 6;
#X obj 330 542 throw~ ch1, f 6;
#X obj 382 542 throw~ ch2, f 6;
#X obj 436 541 throw~ ch3, f 6;
#X obj 492 541 throw~ ch4, f 6;
#X obj 572 543 throw~ ch1, f 6;
#X obj 624 543 throw~ ch2, f 6;
#X obj 678 542 throw~ ch3, f 6;
#X obj 734 542 throw~ ch4, f 6;
#X obj 99 485 *~ 0.3333, f 3;
#X obj 150 484 *~ 0.3333, f 3;
#X obj 203 483 *~ 0.3333, f 3;
#X obj 260 482 *~ 0.3333, f 3;
#X obj 330 486 *~ 0.3333, f 3;
#X obj 381 485 *~ 0.3333, f 3;
#X obj 434 484 *~ 0.3333, f 3;
#X obj 491 483 *~ 0.3333, f 3;
#X obj 572 487 *~ 0.3333, f 3;
#X obj 623 486 *~ 0.3333, f 3;
#X obj 676 485 *~ 0.3333, f 3;
#X obj 733 484 *~ 0.3333, f 3;
#X obj 168 195 else/f2s~ 10, f 5;
#X obj 268 196 else/f2s~ 10, f 5;
#X obj 404 196 else/f2s~ 10, f 5;
#X obj 456 196 else/f2s~ 10, f 5;
#X obj 656 191 else/f2s~ 10, f 5;
#X obj 735 193 else/f2s~ 10, f 5;
#X obj 357 -40 ctlin 20;
#X obj 423 -41 ctlin 23;
#X obj 356 21 else/slider2d 127 127 -1 1 -1 1 0 210 210 210 0 0 0 1
0 0 0 0 empty empty;
#X obj 176 21 else/slider2d 127 127 -1 1 -1 1 0 210 210 210 0 0 0 1
0 0 0 0 empty empty;
#X obj 579 21 else/slider2d 127 127 -1 1 -1 1 0 210 210 210 0 0 0 1
0 0 0 0 empty empty;
#X obj 172 -39 ctlin 16;
#X obj 239 -38 ctlin 19;
#X obj 167 166 unpack, f 19;
#X obj 401 167 unpack, f 15;
#X obj 655 163 unpack, f 17;
#X obj 807 251 else/pan4~, f 20;
#X obj 807 299 else/meter4~;
#X obj 804 532 throw~ ch1, f 6;
#X obj 856 532 throw~ ch2, f 6;
#X obj 910 531 throw~ ch3, f 6;
#X obj 966 531 throw~ ch4, f 6;
#X obj 804 476 *~ 0.3333, f 3;
#X obj 855 475 *~ 0.3333, f 3;
#X obj 908 474 *~ 0.3333, f 3;
#X obj 965 473 *~ 0.3333, f 3;
#X obj 878 191 else/f2s~ 10, f 5;
#X obj 928 192 else/f2s~ 10, f 5;
#X obj 813 22 else/slider2d 127 127 -1 1 -1 1 0 210 210 210 0 0 0 1
0 0 0 0 empty empty;
#X obj 874 162 unpack, f 13;
#N canvas 0 23 450 300 drone1 0;
#X obj 99 48 inlet;
#X obj 225 51 inlet;
#X obj 125 206 outlet;
#X obj 125 178 pack f f;
#X obj 126 145 t b f;
#X obj 97 80 maxlib/scale 0 127 -1 1;
#X obj 124 112 maxlib/scale 0 127 -1 1;
#X connect 0 0 5 0;
#X connect 1 0 6 0;
#X connect 3 0 2 0;
#X connect 4 0 3 0;
#X connect 4 1 3 1;
#X connect 5 0 3 0;
#X connect 6 0 4 0;
#X restore 176 -8 pd drone1;
#X f 17;
#X obj 577 -42 ctlin 24;
#X obj 644 -42 ctlin 27;
#X obj 811 -44 ctlin 28;
#X obj 885 -44 ctlin 31;
#N canvas 0 23 450 300 drone2 0;
#X obj 99 48 inlet;
#X obj 225 51 inlet;
#X obj 125 206 outlet;
#X obj 125 178 pack f f;
#X obj 126 145 t b f;
#X obj 97 80 maxlib/scale 0 127 -1 1;
#X obj 124 112 maxlib/scale 0 127 -1 1;
#X connect 0 0 5 0;
#X connect 1 0 6 0;
#X connect 3 0 2 0;
#X connect 4 0 3 0;
#X connect 4 1 3 1;
#X connect 5 0 3 0;
#X connect 6 0 4 0;
#X restore 358 -10 pd drone2;
#X f 17;
#N canvas 0 23 450 300 drone3 0;
#X obj 99 48 inlet;
#X obj 225 51 inlet;
#X obj 125 206 outlet;
#X obj 125 178 pack f f;
#X obj 126 145 t b f;
#X obj 97 80 maxlib/scale 0 127 -1 1;
#X obj 124 112 maxlib/scale 0 127 -1 1;
#X connect 0 0 5 0;
#X connect 1 0 6 0;
#X connect 3 0 2 0;
#X connect 4 0 3 0;
#X connect 4 1 3 1;
#X connect 5 0 3 0;
#X connect 6 0 4 0;
#X restore 578 -10 pd drone3;
#X f 17;
#N canvas 0 23 450 300 drone4 0;
#X obj 99 48 inlet;
#X obj 225 51 inlet;
#X obj 125 206 outlet;
#X obj 125 178 pack f f;
#X obj 126 145 t b f;
#X obj 97 80 maxlib/scale 0 127 -1 1;
#X obj 124 112 maxlib/scale 0 127 -1 1;
#X connect 0 0 5 0;
#X connect 1 0 6 0;
#X connect 3 0 2 0;
#X connect 4 0 3 0;
#X connect 4 1 3 1;
#X connect 5 0 3 0;
#X connect 6 0 4 0;
#X restore 812 -12 pd drone4;
#X f 17;
#X connect 0 0 1 0;
#X connect 0 1 1 1;
#X connect 0 2 1 2;
#X connect 0 3 1 3;
#X connect 1 0 18 0;
#X connect 1 1 19 0;
#X connect 1 2 20 0;
#X connect 1 3 21 0;
#X connect 3 0 4 0;
#X connect 3 1 4 1;
#X connect 3 2 4 2;
#X connect 3 3 4 3;
#X connect 4 0 22 0;
#X connect 4 1 23 0;
#X connect 4 2 24 0;
#X connect 4 3 25 0;
#X connect 5 0 6 0;
#X connect 5 1 6 1;
#X connect 5 2 6 2;
#X connect 5 3 6 3;
#X connect 6 0 26 0;
#X connect 6 1 27 0;
#X connect 6 2 28 0;
#X connect 6 3 29 0;
#X connect 18 0 2 0;
#X connect 19 0 7 0;
#X connect 20 0 8 0;
#X connect 21 0 9 0;
#X connect 22 0 10 0;
#X connect 23 0 11 0;
#X connect 24 0 12 0;
#X connect 25 0 13 0;
#X connect 26 0 14 0;
#X connect 27 0 15 0;
#X connect 28 0 16 0;
#X connect 29 0 17 0;
#X connect 30 0 0 1;
#X connect 31 0 0 2;
#X connect 32 0 3 1;
#X connect 33 0 3 2;
#X connect 34 0 5 1;
#X connect 35 0 5 2;
#X connect 36 0 65 0;
#X connect 37 0 65 1;
#X connect 38 0 44 0;
#X connect 39 0 43 0;
#X connect 40 0 45 0;
#X connect 41 0 60 0;
#X connect 42 0 60 1;
#X connect 43 0 30 0;
#X connect 43 1 31 1;
#X connect 44 0 32 0;
#X connect 44 1 33 0;
#X connect 45 0 34 0;
#X connect 45 1 35 0;
#X connect 46 0 47 0;
#X connect 46 1 47 1;
#X connect 46 2 47 2;
#X connect 46 3 47 3;
#X connect 47 0 52 0;
#X connect 47 1 53 0;
#X connect 47 2 54 0;
#X connect 47 3 55 0;
#X connect 52 0 48 0;
#X connect 53 0 49 0;
#X connect 54 0 50 0;
#X connect 55 0 51 0;
#X connect 56 0 46 1;
#X connect 57 0 46 2;
#X connect 58 0 59 0;
#X connect 59 0 56 0;
#X connect 59 1 57 0;
#X connect 60 0 39 0;
#X connect 61 0 66 0;
#X connect 62 0 66 1;
#X connect 63 0 67 0;
#X connect 64 0 67 1;
#X connect 65 0 38 0;
#X connect 66 0 40 0;
#X coords 0 -1 1 1 900 130 1 100 20;
#X restore 450 768 pd spatial;
#X obj 1216 631 wave4;
#X obj 453 1215 else/pan4~, f 29;
#X obj 476 1267 else/meter4~;
#X obj 470 1498 throw~ ch1, f 6;
#X obj 700 1215 else/pan4~, f 21;
#X obj 699 1268 else/meter4~;
#X obj 948 1214 else/pan4~, f 23;
#X obj 949 1266 else/meter4~;
#X obj 522 1498 throw~ ch2, f 6;
#X obj 576 1497 throw~ ch3, f 6;
#X obj 632 1497 throw~ ch4, f 6;
#X obj 701 1499 throw~ ch1, f 6;
#X obj 753 1499 throw~ ch2, f 6;
#X obj 807 1498 throw~ ch3, f 6;
#X obj 863 1498 throw~ ch4, f 6;
#X obj 943 1500 throw~ ch1, f 6;
#X obj 995 1500 throw~ ch2, f 6;
#X obj 1049 1499 throw~ ch3, f 6;
#X obj 1105 1499 throw~ ch4, f 6;
#X obj 470 1442 *~ 0.3333, f 3;
#X obj 521 1441 *~ 0.3333, f 3;
#X obj 574 1440 *~ 0.3333, f 3;
#X obj 631 1439 *~ 0.3333, f 3;
#X obj 701 1443 *~ 0.3333, f 3;
#X obj 752 1442 *~ 0.3333, f 3;
#X obj 805 1441 *~ 0.3333, f 3;
#X obj 862 1440 *~ 0.3333, f 3;
#X obj 943 1444 *~ 0.3333, f 3;
#X obj 994 1443 *~ 0.3333, f 3;
#X obj 1047 1442 *~ 0.3333, f 3;
#X obj 1104 1441 *~ 0.3333, f 3;
#X obj 538 1157 else/f2s~ 10, f 5;
#X obj 596 1159 else/f2s~ 10, f 5;
#X obj 775 1158 else/f2s~ 10, f 5;
#X obj 827 1158 else/f2s~ 10, f 5;
#X obj 1039 1157 else/f2s~ 10, f 5;
#X obj 1085 1157 else/f2s~ 10, f 5;
#X obj 727 917 ctlin 20;
#X obj 794 915 ctlin 23;
#X obj 727 977 else/slider2d 127 127 -1 1 -1 1 0 210 210 210 0 0 0
1 0 0 0 0 empty empty;
#X obj 508 980 else/slider2d 127 127 -1 1 -1 1 0 210 210 210 0 0 0
1 0 0 0 0 empty empty;
#X obj 963 975 else/slider2d 127 127 -1 1 -1 1 0 210 210 210 0 0 0
1 0 0 0 0 empty empty;
#X obj 508 917 ctlin 16;
#X obj 576 918 ctlin 19;
#X obj 538 1122 unpack, f 19;
#X obj 775 1123 unpack, f 15;
#X obj 1038 1120 unpack, f 17;
#X obj 1178 1208 else/pan4~, f 20;
#X obj 1178 1268 else/meter4~;
#X obj 1174 1499 throw~ ch1, f 6;
#X obj 1226 1499 throw~ ch2, f 6;
#X obj 1280 1498 throw~ ch3, f 6;
#X obj 1336 1498 throw~ ch4, f 6;
#X obj 1175 1433 *~ 0.3333, f 3;
#X obj 1226 1432 *~ 0.3333, f 3;
#X obj 1279 1431 *~ 0.3333, f 3;
#X obj 1336 1430 *~ 0.3333, f 3;
#X obj 1250 1149 else/f2s~ 10, f 5;
#X obj 1295 1149 else/f2s~ 10, f 5;
#X obj 1194 975 else/slider2d 127 127 -1 1 -1 1 0 210 210 210 0 0 0
1 0 0 0 0 empty empty;
#X obj 1250 1119 unpack, f 13;
#N canvas 0 23 450 300 drone1 0;
#X obj 99 48 inlet;
#X obj 225 51 inlet;
#X obj 125 206 outlet;
#X obj 125 178 pack f f;
#X obj 126 145 t b f;
#X obj 97 80 maxlib/scale 0 127 -1 1;
#X obj 124 112 maxlib/scale 0 127 -1 1;
#X connect 0 0 5 0;
#X connect 1 0 6 0;
#X connect 3 0 2 0;
#X connect 4 0 3 0;
#X connect 4 1 3 1;
#X connect 5 0 3 0;
#X connect 6 0 4 0;
#X restore 508 948 pd drone1;
#X f 17;
#X obj 964 912 ctlin 24;
#X obj 1028 912 ctlin 27;
#X obj 1194 909 ctlin 28;
#X obj 1266 909 ctlin 31;
#N canvas 0 23 450 300 drone2 0;
#X obj 99 48 inlet;
#X obj 225 51 inlet;
#X obj 125 206 outlet;
#X obj 125 178 pack f f;
#X obj 126 145 t b f;
#X obj 97 80 maxlib/scale 0 127 -1 1;
#X obj 124 112 maxlib/scale 0 127 -1 1;
#X connect 0 0 5 0;
#X connect 1 0 6 0;
#X connect 3 0 2 0;
#X connect 4 0 3 0;
#X connect 4 1 3 1;
#X connect 5 0 3 0;
#X connect 6 0 4 0;
#X restore 727 947 pd drone2;
#X f 17;
#N canvas 0 23 450 300 drone3 0;
#X obj 99 48 inlet;
#X obj 225 51 inlet;
#X obj 125 206 outlet;
#X obj 125 178 pack f f;
#X obj 126 145 t b f;
#X obj 97 80 maxlib/scale 0 127 -1 1;
#X obj 124 112 maxlib/scale 0 127 -1 1;
#X connect 0 0 5 0;
#X connect 1 0 6 0;
#X connect 3 0 2 0;
#X connect 4 0 3 0;
#X connect 4 1 3 1;
#X connect 5 0 3 0;
#X connect 6 0 4 0;
#X restore 963 944 pd drone3;
#X f 17;
#N canvas 0 23 450 300 drone4 0;
#X obj 99 48 inlet;
#X obj 225 51 inlet;
#X obj 125 206 outlet;
#X obj 125 178 pack f f;
#X obj 126 145 t b f;
#X obj 97 80 maxlib/scale 0 127 -1 1;
#X obj 124 112 maxlib/scale 0 127 -1 1;
#X connect 0 0 5 0;
#X connect 1 0 6 0;
#X connect 3 0 2 0;
#X connect 4 0 3 0;
#X connect 4 1 3 1;
#X connect 5 0 3 0;
#X connect 6 0 4 0;
#X restore 1194 941 pd drone4;
#X f 17;
#X obj 454 1170 catch~ wave1;
#X obj 691 1173 catch~ wave2;
#X obj 1163 1169 catch~ wave4;
#X obj 938 1177 catch~ wave3;
#X obj 1411 1342 dac~;
#X text 793 192 remote control;
#X text 584 190 dynamic patching;
#X text 1403 760 low pass filter_drone;
#X obj 1409 1013 play_files;
#X text 1406 988 low pass filter_samples;
#X text 347 263 q: ice / w: bird / e: pour water / r: page flip / t:
throw / y: plastic / u: fry / i: open guitarcase / o: cutveg / p: gogogo
/ a: blender / s: water / d: open window / f: wind / g: walk / h: disinfection
/ j: radio / k: rain / l: thunder / z: glass / x: door / c: onepage
/ v: spray / b: guitar / n: typing / m: argue/, f 106;
#X obj 1033 120 harmonic_control_wave2 p1;
#X obj 1399 122 harmonic_control_wave4 p3;
#X obj 1411 1257 catch~ ch1;
#X obj 1433 1303 catch~ ch2;
#X connect 2 0 4 0;
#X connect 12 0 13 0;
#X connect 12 1 13 1;
#X connect 12 2 13 2;
#X connect 12 3 13 3;
#X connect 13 0 30 0;
#X connect 13 1 31 0;
#X connect 13 2 32 0;
#X connect 13 3 33 0;
#X connect 15 0 16 0;
#X connect 15 1 16 1;
#X connect 15 2 16 2;
#X connect 15 3 16 3;
#X connect 16 0 34 0;
#X connect 16 1 35 0;
#X connect 16 2 36 0;
#X connect 16 3 37 0;
#X connect 17 0 18 0;
#X connect 17 1 18 1;
#X connect 17 2 18 2;
#X connect 17 3 18 3;
#X connect 18 0 38 0;
#X connect 18 1 39 0;
#X connect 18 2 40 0;
#X connect 18 3 41 0;
#X connect 30 0 14 0;
#X connect 31 0 19 0;
#X connect 32 0 20 0;
#X connect 33 0 21 0;
#X connect 34 0 22 0;
#X connect 35 0 23 0;
#X connect 36 0 24 0;
#X connect 37 0 25 0;
#X connect 38 0 26 0;
#X connect 39 0 27 0;
#X connect 40 0 28 0;
#X connect 41 0 29 0;
#X connect 42 0 12 1;
#X connect 43 0 12 2;
#X connect 44 0 15 1;
#X connect 45 0 15 2;
#X connect 46 0 17 1;
#X connect 47 0 17 2;
#X connect 48 0 77 0;
#X connect 49 0 77 1;
#X connect 50 0 56 0;
#X connect 51 0 55 0;
#X connect 52 0 57 0;
#X connect 53 0 72 0;
#X connect 54 0 72 1;
#X connect 55 0 42 0;
#X connect 55 1 43 1;
#X connect 56 0 44 0;
#X connect 56 1 45 0;
#X connect 57 0 46 0;
#X connect 57 1 47 0;
#X connect 58 0 59 0;
#X connect 58 1 59 1;
#X connect 58 2 59 2;
#X connect 58 3 59 3;
#X connect 59 0 64 0;
#X connect 59 1 65 0;
#X connect 59 2 66 0;
#X connect 59 3 67 0;
#X connect 64 0 60 0;
#X connect 65 0 61 0;
#X connect 66 0 62 0;
#X connect 67 0 63 0;
#X connect 68 0 58 1;
#X connect 69 0 58 2;
#X connect 70 0 71 0;
#X connect 71 0 68 0;
#X connect 71 1 69 0;
#X connect 72 0 51 0;
#X connect 73 0 78 0;
#X connect 74 0 78 1;
#X connect 75 0 79 0;
#X connect 76 0 79 1;
#X connect 77 0 50 0;
#X connect 78 0 52 0;
#X connect 79 0 70 0;
#X connect 80 0 12 0;
#X connect 81 0 15 0;
#X connect 82 0 58 0;
#X connect 83 0 17 0;
#X connect 93 0 84 0;
#X connect 94 0 84 1;
#X coords 0 0 1 1 85 60 0;
