#N canvas 137 57 887 593 10;
#X obj 167 151 vsl 15 100 0 100 0 0 empty empty decay 0 -9 0 10 -262144
-1 -1 2475 1;
#X obj 205 165 vsl 15 100 0 100 0 0 empty empty sustain 0 -9 0 10 -262144
-1 -1 2475 1;
#X obj 244 187 vsl 15 100 0 100 0 0 empty empty release 0 -9 0 10 -262144
-1 -1 2475 1;
#X obj 128 139 vsl 15 100 0 100 0 0 empty empty attack 0 -9 0 10 -262144
-1 -1 1980 1;
#N canvas -52 170 1920 934 a_d_s_r 0;
#X obj 212 131 * 1;
#X obj 290 131 * 1;
#X obj 358 131 * 1;
#X obj 440 131 * 1;
#X obj 214 205 +;
#X obj 214 189 bng 10 250 50 0 empty empty empty 17 7 0 10 -262144
-1 -1;
#X floatatom 214 227 8 0 0 0 - - -;
#X floatatom 212 153 8 0 0 0 - - -;
#X floatatom 290 155 8 0 0 0 - - -;
#X obj 441 211 +;
#X obj 441 195 bng 10 250 50 0 empty empty empty 17 7 0 10 -262144
-1 -1;
#X floatatom 441 233 8 0 0 0 - - -;
#X floatatom 358 153 8 0 0 0 - - -;
#X floatatom 440 153 8 0 0 0 - - -;
#X obj 336 205 +;
#X obj 336 190 bng 10 250 50 0 empty empty empty 17 7 0 10 -262144
-1 -1;
#X floatatom 336 228 8 0 0 0 - - -;
#X obj 558 428 outlet;
#X obj 95 35 inlet~;
#X obj 421 131 bng 10 250 50 0 empty empty empty 17 7 0 10 -262144
-1 -1;
#X obj 340 131 bng 10 250 50 0 empty empty empty 17 7 0 10 -262144
-1 -1;
#X obj 271 131 bng 10 250 50 0 empty empty empty 17 7 0 10 -262144
-1 -1;
#X obj 192 131 bng 10 250 50 0 empty empty empty 17 7 0 10 -262144
-1 -1;
#X obj 153 35 inlet;
#X obj 257 388 *~;
#X obj 207 260 bng 15 250 50 0 empty empty empty 17 7 0 10 -262144
-1 -1;
#X msg 414 277 0;
#X obj 291 357 vline~;
#X obj 511 304 +;
#X obj 511 277 bng 10 250 50 0 empty empty empty 17 7 0 10 -262144
-1 -1;
#X obj 277 260 f;
#X obj 345 260 f;
#X obj 249 325 pack 0 0;
#X obj 323 325 pack 0 0 0;
#X obj 394 325 pack 0 0 0;
#X obj 461 325 pack 0 0 0;
#X obj 277 282 * 1;
#X obj 345 282 * 1;
#X text 211 13 attack;
#X text 290 13 decay;
#X text 358 13 sustain;
#X text 438 13 release;
#X obj 211 35 inlet;
#X obj 290 35 inlet;
#X obj 358 35 inlet;
#X obj 438 35 inlet;
#X obj 619 35 inlet;
#X obj 490 34 inlet;
#X obj 551 34 inlet;
#X obj 321 428 outlet;
#X obj 382 428 outlet;
#X obj 443 428 outlet;
#X obj 503 428 outlet;
#X obj 212 71 / 100;
#X obj 290 71 / 100;
#X obj 358 71 / 100;
#X obj 440 71 / 100;
#X text 617 14 note length;
#X text 490 13 level_a;
#X text 558 13 level_s;
#X text 394 304 s;
#X text 462 304 r;
#X text 323 303 d;
#X text 250 303 a;
#X text 502 445 release;
#X text 441 444 sustain;
#X text 384 443 decay;
#X text 320 444 attack;
#X obj 258 427 outlet~;
#X text 560 442 total;
#X text 94 13 soundwave;
#X text 160 13 bang;
#X obj 685 34 r volume2;
#X connect 0 0 7 0;
#X connect 1 0 8 0;
#X connect 2 0 12 0;
#X connect 3 0 13 0;
#X connect 4 0 6 0;
#X connect 5 0 4 0;
#X connect 6 0 14 0;
#X connect 6 0 28 0;
#X connect 6 0 34 2;
#X connect 7 0 4 0;
#X connect 7 0 32 1;
#X connect 7 0 33 2;
#X connect 7 0 49 0;
#X connect 8 0 4 1;
#X connect 8 0 5 0;
#X connect 8 0 33 1;
#X connect 8 0 50 0;
#X connect 9 0 11 0;
#X connect 10 0 9 0;
#X connect 11 0 14 1;
#X connect 11 0 15 0;
#X connect 12 0 9 0;
#X connect 12 0 28 1;
#X connect 12 0 29 0;
#X connect 12 0 34 1;
#X connect 12 0 51 0;
#X connect 13 0 9 1;
#X connect 13 0 10 0;
#X connect 13 0 35 1;
#X connect 13 0 52 0;
#X connect 14 0 16 0;
#X connect 15 0 14 0;
#X connect 16 0 17 0;
#X connect 18 0 24 0;
#X connect 19 0 3 0;
#X connect 20 0 2 0;
#X connect 21 0 1 0;
#X connect 22 0 0 0;
#X connect 23 0 25 0;
#X connect 24 0 68 0;
#X connect 25 0 30 0;
#X connect 25 0 31 0;
#X connect 25 0 26 0;
#X connect 26 0 35 0;
#X connect 27 0 24 1;
#X connect 28 0 35 2;
#X connect 29 0 28 0;
#X connect 30 0 36 0;
#X connect 31 0 37 0;
#X connect 32 0 27 0;
#X connect 33 0 27 0;
#X connect 34 0 27 0;
#X connect 35 0 27 0;
#X connect 36 0 32 0;
#X connect 37 0 33 0;
#X connect 37 0 34 0;
#X connect 42 0 53 0;
#X connect 43 0 54 0;
#X connect 44 0 55 0;
#X connect 45 0 56 0;
#X connect 46 0 0 1;
#X connect 46 0 1 1;
#X connect 46 0 2 1;
#X connect 46 0 3 1;
#X connect 46 0 19 0;
#X connect 46 0 20 0;
#X connect 46 0 21 0;
#X connect 46 0 22 0;
#X connect 47 0 30 1;
#X connect 48 0 31 1;
#X connect 53 0 0 0;
#X connect 54 0 1 0;
#X connect 55 0 2 0;
#X connect 56 0 3 0;
#X connect 72 0 37 1;
#X connect 72 0 36 1;
#X restore 211 424 pd a_d_s_r;
#X f 26;
#X floatatom 303 123 5 0 0 3 attack - -;
#X floatatom 349 123 5 0 0 3 decay - -;
#X floatatom 302 162 5 0 0 3 sustain - -;
#X floatatom 350 162 5 0 0 3 release - -;
#X floatatom 162 320 5 0 0 3 total(s) - -;
#X text 30 181 (1~100);
#X obj 292 224 hsl 100 15 0 1 0 0 empty empty attack_level(0~1) -2
-8 0 10 -262144 -1 -1 7425 1;
#X obj 291 275 hsl 100 15 0 1 0 0 empty empty sustain_level(0~1) -2
-8 0 10 -262144 -1 -1 3960 1;
#X obj 220 323 hsl 100 15 3000 30000 0 0 empty empty empty -2 -8 0
10 -262144 -1 -1 7100 1;
#X obj 211 470 / 1000;
#X obj 260 470 / 1000;
#X obj 314 470 / 1000;
#X text 163 468 ms->s;
#X obj 365 469 / 1000;
#X obj 419 469 / 1000;
#X obj 258 31 loadbang;
#X obj 508 17 cnv 15 100 60 empty empty empty 20 12 0 14 -233017 -66577
0;
#X msg 30 80 25;
#X msg 30 144 25;
#X obj 230 390 r freq2;
#X obj 211 360 catch~ sum_sines2;
#X msg 330 61 0.4;
#X msg 259 52 0.75;
#X msg 30 52 20;
#X msg 31 111 25;
#X msg 260 75 15000;
#X obj 191 501 throw~ wave2;
#X connect 0 0 4 3;
#X connect 1 0 4 4;
#X connect 2 0 4 5;
#X connect 3 0 4 2;
#X connect 4 0 31 0;
#X connect 4 1 14 0;
#X connect 4 2 15 0;
#X connect 4 3 16 0;
#X connect 4 4 18 0;
#X connect 4 5 19 0;
#X connect 11 0 4 6;
#X connect 12 0 4 7;
#X connect 13 0 4 8;
#X connect 14 0 5 0;
#X connect 15 0 6 0;
#X connect 16 0 7 0;
#X connect 18 0 8 0;
#X connect 19 0 9 0;
#X connect 20 0 30 0;
#X connect 20 0 27 0;
#X connect 20 0 23 0;
#X connect 20 0 29 0;
#X connect 20 0 22 0;
#X connect 20 0 28 0;
#X connect 20 0 26 0;
#X connect 22 0 0 0;
#X connect 23 0 2 0;
#X connect 24 0 4 1;
#X connect 25 0 4 0;
#X connect 26 0 12 0;
#X connect 27 0 11 0;
#X connect 28 0 3 0;
#X connect 29 0 1 0;
#X connect 30 0 13 0;
#X coords 0 -1 1 1 180 60 2 150 300;
