#N canvas 4779 461 806 626 10;
#X obj 39 138 osc~ 0;
#X obj 39 113 *~ \$1;
#X obj 40 180 *~ 1;
#X obj 106 135 hsl 100 15 0 1 0 0 empty empty empty -2 -8 0 10 -262144
-1 -1 0 1;
#X obj 39 236 cnv 15 100 60 empty empty empty 20 12 0 14 -233017 -66577
0;
#X text 101 115 amplitude;
#X obj 39 88 sig~ 100;
#X obj 302 124 f \$2;
#X obj 302 74 r set-amp;
#X obj 39 205 throw~ sum_sines5;
#X obj 39 62 receive freq5;
#X connect 0 0 2 0;
#X connect 1 0 0 0;
#X connect 2 0 9 0;
#X connect 3 0 2 1;
#X connect 6 0 1 0;
#X connect 7 0 3 0;
#X connect 8 0 7 0;
#X connect 10 0 6 0;
#X coords 0 -1 1 1 110 50 1 100 100;
