#N canvas 53 257 547 493 10;
#X obj 39 86 sig~ 100;
#X obj 39 111 *~ \$1;
#X obj 106 133 hsl 100 15 0 1 0 0 empty empty empty -2 -8 0 10 -262144
-1 -1 0 1;
#X obj 39 234 cnv 15 100 60 empty empty empty 20 12 0 14 -233017 -66577
0;
#X text 101 113 amplitude;
#X obj 39 60 receive freq3;
#X obj 40 203 throw~ sum_sines3;
#X obj 39 136 osc~ 0;
#X obj 164 58 mytranf \$3;
#X obj 166 25 r \$2;
#X msg 107 155 \$1 10;
#X obj 102 180 line~;
#X obj 40 178 *~;
#X connect 0 0 1 0;
#X connect 1 0 7 0;
#X connect 2 0 10 0;
#X connect 5 0 0 0;
#X connect 7 0 12 0;
#X connect 8 0 2 0;
#X connect 9 0 8 0;
#X connect 10 0 11 0;
#X connect 11 0 12 0;
#X connect 12 0 6 0;
#X coords 0 -1 1 1 110 50 1 100 100;
