#N canvas 406 180 450 494 10;
#X obj 232 113 until;
#X obj 232 149 f 0;
#X obj 262 149 + 1;
#X msg 273 113 0;
#X obj 232 303 tabwrite transf-funct-\$1;
#X obj 232 175 t b f;
#X obj 232 269 / 100;
#X obj 232 31 loadbang;
#X obj 106 23 inlet;
#X obj 56 337 outlet;
#X obj 232 78 t f b;
#X obj 232 238 random 100;
#X obj 54 213 tabread4 transf-funct-\$1;
#X msg 232 54 8;
#X obj 233 326 table transf-funct-\$1 8;
#X obj 83 143 + 1;
#X obj 129 83 / 20;
#X connect 0 0 1 0;
#X connect 1 0 2 0;
#X connect 1 0 5 0;
#X connect 2 0 1 1;
#X connect 3 0 1 0;
#X connect 5 0 11 0;
#X connect 5 1 4 1;
#X connect 6 0 4 0;
#X connect 7 0 13 0;
#X connect 8 0 16 0;
#X connect 10 0 0 0;
#X connect 10 1 3 0;
#X connect 11 0 6 0;
#X connect 12 0 9 0;
#X connect 13 0 10 0;
#X connect 15 0 12 0;
#X connect 16 0 15 0;
