#N canvas 327 89 1036 679 10;
#X msg -282 0 disconnect;
#X msg -432 0 connect 127.0.0.1 9998;
#X obj 439 86 print x;
#X obj 546 96 print y;
#X obj 300 176 print arg1;
#X obj 377 167 print arg2;
#X obj 456 176 print arg3;
#X obj 377 135 unpack s f 0;
#X text -436 -27 SENDING;
#X msg -283 37 /socketio 25 25;
#X msg -423 38 /print/pd hello 2 2.3;
#X obj 102 86 unpack 0 0;
#X obj 102 147 nbx 15 14 -1e+37 1e+37 0 0 empty empty empty 0 -8 0
10 -262144 -1 -1 -1.18398e+09 256;
#X obj 159 123 nbx 5 14 -1e+37 1e+37 0 0 empty empty empty 0 -8 0 10
-262144 -1 -1 58 256;
#X obj 439 22 osc/routeOSC /print;
#X obj -107 25 osc/unpackOSC;
#X obj -107 -7 mrpeach/udpreceive 9999;
#X obj 439 54 osc/routeOSC /x;
#X obj 304 63 osc/routeOSC /many;
#X obj 546 64 osc/routeOSC /y;
#X obj 101 49 osc/routeOSC /socketio;
#X obj -364 87 osc/packOSC;
#X obj -364 118 mrpeach/udpsend;
#X text -109 -30 RECEIVING;
#X obj -4 262 t l;
#X obj -133 283 list-abs/list-unique;
#X obj -133 254 list prepend;
#X msg -133 343 \$1;
#X msg 122 337 \$3;
#X msg -6 338 \$2;
#X floatatom -117 367 15 0 0 0 - - -, f 15;
#X floatatom 4 365 15 0 0 0 - - -, f 15;
#X floatatom 132 361 15 0 0 0 - - -, f 15;
#X floatatom -133 420 5 0 0 0 - - -, f 5;
#X floatatom -6 418 5 0 0 0 - - -, f 5;
#X floatatom 122 416 5 0 0 0 - - -, f 5;
#X obj 122 388 osc_receiver;
#X msg 40 231 bang;
#X obj 102 204 s data-from-phones;
#X floatatom 40 282 5 0 0 0 - - -, f 5;
#X obj 102 175 pack \$0 \$1;
#X obj -133 391 osc_receiver;
#X obj -6 390 osc_receiver;
#X connect 0 0 22 0;
#X connect 1 0 22 0;
#X connect 7 0 4 0;
#X connect 7 1 5 0;
#X connect 7 2 6 0;
#X connect 9 0 21 0;
#X connect 10 0 21 0;
#X connect 11 0 12 0;
#X connect 11 1 13 0;
#X connect 12 0 26 0;
#X connect 12 0 40 0;
#X connect 13 0 40 1;
#X connect 14 0 17 0;
#X connect 14 0 18 0;
#X connect 14 0 19 0;
#X connect 15 0 14 0;
#X connect 15 0 20 0;
#X connect 16 0 15 0;
#X connect 17 0 2 0;
#X connect 18 0 7 0;
#X connect 19 0 3 0;
#X connect 20 0 11 0;
#X connect 21 0 22 0;
#X connect 24 0 26 1;
#X connect 25 0 24 0;
#X connect 25 0 27 0;
#X connect 25 0 29 0;
#X connect 25 0 28 0;
#X connect 26 0 25 0;
#X connect 27 0 30 0;
#X connect 27 0 41 0;
#X connect 28 0 32 0;
#X connect 28 0 36 0;
#X connect 29 0 31 0;
#X connect 29 0 42 0;
#X connect 36 0 35 0;
#X connect 37 0 26 1;
#X connect 37 0 39 0;
#X connect 39 0 28 0;
#X connect 39 0 29 0;
#X connect 39 0 27 0;
#X connect 40 0 38 0;
#X connect 41 0 33 0;
#X connect 42 0 34 0;
