#N canvas 2687 262 2880 1556 10;
#X obj 169 29 bng 15 250 50 0 empty empty empty 17 7 0 10 -262144 -1
-1;
#X obj 52 141 f;
#X floatatom 94 167 5 0 0 0 - - -;
#X obj 52 167 + 60;
#X msg 29 54 60;
#X obj 223 122 random 100;
#X floatatom 223 204 5 0 0 0 - - -;
#X obj 223 147 f;
#X obj 223 175 / 100;
#X obj 208 226 +;
#X obj 169 226 f;
#X floatatom 169 253 5 0 0 0 - - -;
#X msg 68 54 1;
#X obj 314 45 random 100;
#X floatatom 314 127 5 0 0 0 - - -;
#X obj 314 70 f;
#X obj 314 97 / 100;
#X obj 314 262 s set-amp;
#X obj 314 235 bang;
#X obj 314 207 delay 100;
#X msg 314 160 0.2;
#X obj 169 431 s pd-performer1.pd;
#X text 222 104 freq rand;
#X text 51 184 position;
#X obj 55 256 / 60;
#X floatatom 55 282 5 0 0 0 - - -;
#X text 6 281 counter;
#X obj 55 320 < 20;
#X floatatom 55 353 5 0 0 0 - - -;
#X obj 55 433 select 0 1;
#X obj 324 431 print;
#X text 165 12 add more patches;
#X obj 84 624 catch~ wave5;
#X obj 84 663 dac~;
#X text 58 603 if use \, connect them;
#X text 57 685 dac~ can be changed by a meter~;
#X obj 29 18 loadbang;
#X obj 169 353 pack f f f;
#X obj 55 477 wave5;
#X msg 169 398 obj 500 \$3 harmonics5 \$1 \$2;
#X text 190 381 future work: add \$4 for remote control;
#X connect 0 0 1 0;
#X connect 0 0 5 0;
#X connect 0 0 10 0;
#X connect 0 0 13 0;
#X connect 0 0 19 0;
#X connect 1 0 2 0;
#X connect 1 0 3 0;
#X connect 2 0 24 0;
#X connect 2 0 37 2;
#X connect 3 0 1 1;
#X connect 4 0 1 1;
#X connect 5 0 7 0;
#X connect 6 0 9 1;
#X connect 7 0 8 0;
#X connect 8 0 6 0;
#X connect 9 0 10 1;
#X connect 10 0 9 0;
#X connect 10 0 11 0;
#X connect 10 0 37 0;
#X connect 12 0 10 1;
#X connect 12 0 28 0;
#X connect 13 0 15 0;
#X connect 15 0 16 0;
#X connect 16 0 14 0;
#X connect 16 0 37 1;
#X connect 18 0 17 0;
#X connect 19 0 18 0;
#X connect 20 0 37 1;
#X connect 24 0 25 0;
#X connect 25 0 27 0;
#X connect 27 0 28 0;
#X connect 28 0 29 0;
#X connect 36 0 4 0;
#X connect 36 0 12 0;
#X connect 36 0 20 0;
#X connect 37 0 39 0;
#X connect 39 0 21 0;
#X connect 39 0 30 0;
