#N canvas 0 23 1280 704 10;
#X obj 136 62 r sample;
#X obj 136 159 tabplay~ glass;
#X obj 136 629 s~ play;
#X obj 16 149 r~ play;
#X obj 136 103 sel 1 2 3 4 5 6 7 8 9 10 11 12 13 14 15 16 17 18 19
20 21 22 23 24 25 26 27, f 230;
#X obj 185 184 tabplay~ thunder;
#X obj 219 211 tabplay~ rain;
#X obj 274 252 tabplay~ openguitarcase;
#X obj 334 291 tabplay~ ice;
#X obj 391 324 tabplay~ pourwater;
#X obj 455 365 tabplay~ icantbelieve;
#X obj 526 398 tabplay~ guitar;
#X obj 581 434 tabplay~ cutveg;
#X obj 615 467 tabplay~ door;
#X obj 674 505 tabplay~ gogogo;
#X obj 743 545 tabplay~ water;
#X obj 815 341 tabplay~ onepage;
#X obj 920 377 tabplay~ blender;
#X obj 730 263 tabplay~ fry;
#X obj 780 298 tabplay~ plastic;
#X obj 1172 471 tabplay~ pageflip;
#X obj 1092 441 tabplay~ throw;
#X obj 1024 410 tabplay~ radio;
#X obj 1213 507 tabplay~ radiostatic;
#X obj 17 358 lop~;
#X obj 72 237 vsl 15 128 0 8000 0 0 empty empty empty 0 -9 0 10 -262144
-1 -1 6350 1;
#X obj 70 61 loadbang;
#X floatatom 72 379 5 0 0 0 - - -;
#X msg 70 82 4000;
#X obj 49 666 cnv 15 100 60 empty empty empty 20 12 0 14 -233017 -66577
0;
#X obj 17 446 throw~ wave1;
#X connect 0 0 4 0;
#X connect 1 0 2 0;
#X connect 3 0 24 0;
#X connect 4 0 1 0;
#X connect 4 1 5 0;
#X connect 4 2 6 0;
#X connect 4 3 7 0;
#X connect 4 4 8 0;
#X connect 4 5 9 0;
#X connect 4 6 10 0;
#X connect 4 7 11 0;
#X connect 4 8 12 0;
#X connect 4 9 13 0;
#X connect 4 10 14 0;
#X connect 4 11 15 0;
#X connect 4 12 18 0;
#X connect 4 13 19 0;
#X connect 4 14 16 0;
#X connect 4 15 17 0;
#X connect 4 16 22 0;
#X connect 4 17 21 0;
#X connect 4 18 20 0;
#X connect 4 19 23 0;
#X connect 5 0 2 0;
#X connect 6 0 2 0;
#X connect 7 0 2 0;
#X connect 8 0 2 0;
#X connect 9 0 2 0;
#X connect 10 0 2 0;
#X connect 11 0 2 0;
#X connect 12 0 2 0;
#X connect 13 0 2 0;
#X connect 14 0 2 0;
#X connect 15 0 2 0;
#X connect 16 0 2 0;
#X connect 17 0 2 0;
#X connect 18 0 2 0;
#X connect 19 0 2 0;
#X connect 20 0 2 0;
#X connect 21 0 2 0;
#X connect 22 0 2 0;
#X connect 24 0 30 0;
#X connect 25 0 24 1;
#X connect 25 0 27 0;
#X connect 26 0 28 0;
#X connect 28 0 25 0;
#X coords 0 -1 1 1 50 175 2 60 230;
