#N canvas 43 129 838 466 10;
#X obj 98 311 lop~;
#X obj 268 70 vsl 15 128 0 5000 0 0 empty empty empty 0 -9 0 10 -262144
-1 -1 12700 1;
#X obj 302 70 loadbang;
#X msg 302 95 5000;
#X floatatom 261 213 5 0 0 0 - - -;
#X obj 421 214 cnv 15 100 60 empty empty empty 20 12 0 14 -233017 -66577
0;
#X obj 99 160 expr~ atan($v1);
#X obj 99 187 *~ 0.63662;
#X obj 100 118 *~ 1;
#X connect 1 0 4 0;
#X connect 2 0 3 0;
#X connect 3 0 1 0;
#X connect 4 0 0 1;
#X connect 6 0 7 0;
#X connect 7 0 0 0;
#X connect 8 0 6 0;
#X coords 0 -1 1 1 50 180 2 250 60;
