#N canvas 4445 590 1280 702 12;
#X obj 356 12 loadbang;
#X obj 327 127 hradio 15 1 0 3 empty empty empty 0 -8 0 10 -262144
-1 -1 1;
#X obj 453 102 select 0 1 2;
#X obj 461 43 float;
#X obj 512 43 + 1;
#X obj 548 44 mod 3;
#X floatatom 327 155 5 0 0 0 - - -;
#X text 325 171 current freq;
#X obj 356 38 metro 5000;
#X obj 563 208 cnv 15 100 60 empty empty empty 20 12 0 14 -233017 -66577
0;
#X obj 258 65 r freq5;
#X obj 453 165 s freq5;
#X obj 111 125 envelope-wave5;
#X msg 453 134 10.1;
#X msg 508 133 15.2;
#X msg 560 133 19;
#X connect 0 0 8 0;
#X connect 1 0 2 0;
#X connect 2 0 13 0;
#X connect 2 1 14 0;
#X connect 2 2 15 0;
#X connect 3 0 4 0;
#X connect 3 0 5 0;
#X connect 4 0 3 1;
#X connect 5 0 1 0;
#X connect 8 0 3 0;
#X connect 10 0 6 0;
#X connect 13 0 11 0;
#X connect 14 0 11 0;
#X connect 15 0 11 0;
#X coords 0 -1 1 1 330 100 1 100 100;
