#N canvas 3498 588 1920 1016 10;
#X obj 219 141 keyboard;
#X obj 112 538 cnv 15 100 60 empty empty empty 20 12 0 14 -233017 -66577
0;
#X text 668 161 wave1;
#X obj 827 100 read_files;
#X text 847 67 read samples:;
#X text 584 184 real world samples;
#X coords 0 -1 1 1 650 250 2 150 100;
