#N canvas 507 343 1280 702 12;
#X floatatom 388 142 5 0 0 0 - - -;
#X obj 12 139 rmstodb;
#X obj 11 45 loadbang;
#X msg 11 65 0.1;
#X obj 356 12 loadbang;
#X obj 304 130 hradio 15 1 0 3 empty empty empty 0 -8 0 10 -262144
-1 -1 2;
#X obj 453 102 select 0 1 2;
#X obj 461 43 float;
#X obj 512 43 + 1;
#X obj 548 44 mod 3;
#X floatatom 304 158 5 0 0 0 - - -;
#X text 302 174 current freq;
#X text 383 156 volume;
#X obj 356 38 metro 5000;
#X obj 563 208 cnv 15 100 60 empty empty empty 20 12 0 14 -233017 -66577
0;
#X obj 106 127 envelope-wave4;
#X msg 453 134 74.54;
#X msg 508 133 53.24;
#X msg 559 133 61.12;
#X obj 453 165 s freq4;
#X obj 11 110 s volume4;
#X obj 258 65 r freq4;
#X connect 1 0 0 0;
#X connect 2 0 3 0;
#X connect 3 0 1 0;
#X connect 3 0 20 0;
#X connect 4 0 13 0;
#X connect 5 0 6 0;
#X connect 6 0 16 0;
#X connect 6 1 17 0;
#X connect 6 2 18 0;
#X connect 7 0 8 0;
#X connect 7 0 9 0;
#X connect 8 0 7 1;
#X connect 9 0 5 0;
#X connect 13 0 7 0;
#X connect 16 0 19 0;
#X connect 17 0 19 0;
#X connect 18 0 19 0;
#X connect 21 0 10 0;
#X coords 0 -1 1 1 330 100 1 100 100;
